<mxfile host="app.diagrams.net" modified="2022-12-07T12:41:03.500Z" agent="5.0 (Windows NT 10.0; Win64; x64) AppleWebKit/537.36 (KHTML, like Gecko) Chrome/108.0.0.0 Safari/537.36" etag="pd9qLqZ6rQXHQLX1lQbr" version="20.6.0" type="github">
  <diagram id="kgpKYQtTHZ0yAKxKKP6v" name="Page-1">
    <mxGraphModel dx="1011" dy="993" grid="1" gridSize="10" guides="1" tooltips="1" connect="1" arrows="1" fold="1" page="1" pageScale="1" pageWidth="850" pageHeight="1100" math="0" shadow="0">
      <root>
        <mxCell id="0" />
        <mxCell id="1" parent="0" />
        <mxCell id="UBUXt03le9G-DHUDN2T2-25" value="" style="rounded=0;whiteSpace=wrap;html=1;fontFamily=Helvetica;fontSize=20;fontColor=default;" vertex="1" parent="1">
          <mxGeometry x="40" y="40" width="640" height="480" as="geometry" />
        </mxCell>
        <mxCell id="UBUXt03le9G-DHUDN2T2-1" value="&lt;font style=&quot;font-size: 15px;&quot;&gt;data0.dat&lt;/font&gt;" style="ellipse;whiteSpace=wrap;html=1;" vertex="1" parent="1">
          <mxGeometry x="60" y="50" width="120" height="80" as="geometry" />
        </mxCell>
        <mxCell id="UBUXt03le9G-DHUDN2T2-2" value="" style="endArrow=classic;html=1;rounded=0;exitX=0.5;exitY=1;exitDx=0;exitDy=0;entryX=0.5;entryY=0;entryDx=0;entryDy=0;" edge="1" parent="1" source="UBUXt03le9G-DHUDN2T2-1" target="UBUXt03le9G-DHUDN2T2-3">
          <mxGeometry width="50" height="50" relative="1" as="geometry">
            <mxPoint x="300" y="350" as="sourcePoint" />
            <mxPoint x="270" y="240" as="targetPoint" />
          </mxGeometry>
        </mxCell>
        <mxCell id="UBUXt03le9G-DHUDN2T2-4" value="open&lt;br style=&quot;font-size: 20px;&quot;&gt;read" style="edgeLabel;html=1;align=center;verticalAlign=middle;resizable=0;points=[];fontSize=20;fontStyle=1" vertex="1" connectable="0" parent="UBUXt03le9G-DHUDN2T2-2">
          <mxGeometry x="-0.35" y="3" relative="1" as="geometry">
            <mxPoint x="-33" y="1" as="offset" />
          </mxGeometry>
        </mxCell>
        <mxCell id="UBUXt03le9G-DHUDN2T2-3" value="&lt;b&gt;compute node #0&lt;/b&gt;" style="rounded=1;whiteSpace=wrap;html=1;" vertex="1" parent="1">
          <mxGeometry x="60" y="240" width="120" height="60" as="geometry" />
        </mxCell>
        <mxCell id="UBUXt03le9G-DHUDN2T2-5" value="&lt;b&gt;compute node #1&lt;/b&gt;" style="rounded=1;whiteSpace=wrap;html=1;" vertex="1" parent="1">
          <mxGeometry x="220" y="240" width="120" height="60" as="geometry" />
        </mxCell>
        <mxCell id="UBUXt03le9G-DHUDN2T2-6" value="&lt;b&gt;compute node #2&lt;/b&gt;" style="rounded=1;whiteSpace=wrap;html=1;" vertex="1" parent="1">
          <mxGeometry x="380" y="240" width="120" height="60" as="geometry" />
        </mxCell>
        <mxCell id="UBUXt03le9G-DHUDN2T2-7" value="&lt;b&gt;compute node #3&lt;/b&gt;" style="rounded=1;whiteSpace=wrap;html=1;" vertex="1" parent="1">
          <mxGeometry x="540" y="240" width="120" height="60" as="geometry" />
        </mxCell>
        <mxCell id="UBUXt03le9G-DHUDN2T2-8" value="" style="endArrow=classic;html=1;rounded=0;fontSize=20;" edge="1" parent="1" source="UBUXt03le9G-DHUDN2T2-20" target="UBUXt03le9G-DHUDN2T2-5">
          <mxGeometry width="50" height="50" relative="1" as="geometry">
            <mxPoint x="350" y="140" as="sourcePoint" />
            <mxPoint x="400" y="90" as="targetPoint" />
          </mxGeometry>
        </mxCell>
        <mxCell id="UBUXt03le9G-DHUDN2T2-9" value="" style="endArrow=classic;html=1;rounded=0;fontSize=20;entryX=0.5;entryY=0;entryDx=0;entryDy=0;" edge="1" parent="1" source="UBUXt03le9G-DHUDN2T2-21" target="UBUXt03le9G-DHUDN2T2-6">
          <mxGeometry width="50" height="50" relative="1" as="geometry">
            <mxPoint x="350" y="140" as="sourcePoint" />
            <mxPoint x="400" y="90" as="targetPoint" />
          </mxGeometry>
        </mxCell>
        <mxCell id="UBUXt03le9G-DHUDN2T2-10" value="" style="endArrow=classic;html=1;rounded=0;fontSize=20;entryX=0.5;entryY=0;entryDx=0;entryDy=0;" edge="1" parent="1" source="UBUXt03le9G-DHUDN2T2-22" target="UBUXt03le9G-DHUDN2T2-7">
          <mxGeometry width="50" height="50" relative="1" as="geometry">
            <mxPoint x="360" y="120" as="sourcePoint" />
            <mxPoint x="400" y="90" as="targetPoint" />
          </mxGeometry>
        </mxCell>
        <mxCell id="UBUXt03le9G-DHUDN2T2-11" value="&lt;font style=&quot;font-size: 20px;&quot;&gt;&lt;b&gt;I/O node #0&lt;/b&gt;&lt;/font&gt;" style="rounded=1;whiteSpace=wrap;html=1;" vertex="1" parent="1">
          <mxGeometry x="60" y="400" width="280" height="80" as="geometry" />
        </mxCell>
        <mxCell id="UBUXt03le9G-DHUDN2T2-12" value="&lt;font style=&quot;font-size: 20px;&quot;&gt;&lt;b&gt;I/O node #1&lt;/b&gt;&lt;/font&gt;" style="rounded=1;whiteSpace=wrap;html=1;" vertex="1" parent="1">
          <mxGeometry x="380" y="400" width="280" height="80" as="geometry" />
        </mxCell>
        <mxCell id="UBUXt03le9G-DHUDN2T2-13" value="" style="endArrow=classic;html=1;rounded=0;fontSize=20;exitX=0.5;exitY=1;exitDx=0;exitDy=0;entryX=0.5;entryY=0;entryDx=0;entryDy=0;" edge="1" parent="1" source="UBUXt03le9G-DHUDN2T2-3" target="UBUXt03le9G-DHUDN2T2-11">
          <mxGeometry width="50" height="50" relative="1" as="geometry">
            <mxPoint x="350" y="340" as="sourcePoint" />
            <mxPoint x="400" y="290" as="targetPoint" />
            <Array as="points">
              <mxPoint x="150" y="340" />
            </Array>
          </mxGeometry>
        </mxCell>
        <mxCell id="UBUXt03le9G-DHUDN2T2-14" value="" style="endArrow=classic;html=1;rounded=0;fontSize=20;exitX=0.5;exitY=1;exitDx=0;exitDy=0;entryX=0.5;entryY=0;entryDx=0;entryDy=0;" edge="1" parent="1" source="UBUXt03le9G-DHUDN2T2-5" target="UBUXt03le9G-DHUDN2T2-11">
          <mxGeometry width="50" height="50" relative="1" as="geometry">
            <mxPoint x="350" y="340" as="sourcePoint" />
            <mxPoint x="400" y="290" as="targetPoint" />
          </mxGeometry>
        </mxCell>
        <mxCell id="UBUXt03le9G-DHUDN2T2-15" value="" style="endArrow=classic;html=1;rounded=0;labelBackgroundColor=default;strokeColor=default;fontFamily=Helvetica;fontSize=20;fontColor=default;shape=connector;exitX=0.5;exitY=1;exitDx=0;exitDy=0;entryX=0.5;entryY=0;entryDx=0;entryDy=0;" edge="1" parent="1" source="UBUXt03le9G-DHUDN2T2-6" target="UBUXt03le9G-DHUDN2T2-12">
          <mxGeometry width="50" height="50" relative="1" as="geometry">
            <mxPoint x="350" y="340" as="sourcePoint" />
            <mxPoint x="400" y="290" as="targetPoint" />
          </mxGeometry>
        </mxCell>
        <mxCell id="UBUXt03le9G-DHUDN2T2-16" value="" style="endArrow=classic;html=1;rounded=0;labelBackgroundColor=default;strokeColor=default;fontFamily=Helvetica;fontSize=20;fontColor=default;shape=connector;exitX=0.5;exitY=1;exitDx=0;exitDy=0;entryX=0.5;entryY=0;entryDx=0;entryDy=0;" edge="1" parent="1" source="UBUXt03le9G-DHUDN2T2-7" target="UBUXt03le9G-DHUDN2T2-12">
          <mxGeometry width="50" height="50" relative="1" as="geometry">
            <mxPoint x="350" y="340" as="sourcePoint" />
            <mxPoint x="400" y="290" as="targetPoint" />
          </mxGeometry>
        </mxCell>
        <mxCell id="UBUXt03le9G-DHUDN2T2-17" value="open&lt;br style=&quot;font-size: 20px;&quot;&gt;read" style="edgeLabel;html=1;align=center;verticalAlign=middle;resizable=0;points=[];fontSize=20;fontStyle=1" vertex="1" connectable="0" parent="1">
          <mxGeometry x="170.00151199571334" y="149.99972899986307" as="geometry">
            <mxPoint x="82" y="20" as="offset" />
          </mxGeometry>
        </mxCell>
        <mxCell id="UBUXt03le9G-DHUDN2T2-18" value="open&lt;br style=&quot;font-size: 20px;&quot;&gt;read" style="edgeLabel;html=1;align=center;verticalAlign=middle;resizable=0;points=[];fontSize=20;fontStyle=1" vertex="1" connectable="0" parent="1">
          <mxGeometry x="230.77151199571335" y="159.99972899986307" as="geometry">
            <mxPoint x="182" y="11" as="offset" />
          </mxGeometry>
        </mxCell>
        <mxCell id="UBUXt03le9G-DHUDN2T2-19" value="open&lt;br style=&quot;font-size: 20px;&quot;&gt;read" style="edgeLabel;html=1;align=center;verticalAlign=middle;resizable=0;points=[];fontSize=20;fontStyle=1" vertex="1" connectable="0" parent="1">
          <mxGeometry x="290.0015119957134" y="189.99972899986307" as="geometry">
            <mxPoint x="282" y="-23" as="offset" />
          </mxGeometry>
        </mxCell>
        <mxCell id="UBUXt03le9G-DHUDN2T2-20" value="&lt;font style=&quot;font-size: 15px;&quot;&gt;data1.dat&lt;/font&gt;" style="ellipse;whiteSpace=wrap;html=1;" vertex="1" parent="1">
          <mxGeometry x="220" y="50" width="120" height="80" as="geometry" />
        </mxCell>
        <mxCell id="UBUXt03le9G-DHUDN2T2-21" value="&lt;font style=&quot;font-size: 15px;&quot;&gt;data2.dat&lt;/font&gt;" style="ellipse;whiteSpace=wrap;html=1;" vertex="1" parent="1">
          <mxGeometry x="380" y="50" width="120" height="80" as="geometry" />
        </mxCell>
        <mxCell id="UBUXt03le9G-DHUDN2T2-22" value="&lt;font style=&quot;font-size: 15px;&quot;&gt;data3.dat&lt;/font&gt;" style="ellipse;whiteSpace=wrap;html=1;" vertex="1" parent="1">
          <mxGeometry x="540" y="50" width="120" height="80" as="geometry" />
        </mxCell>
        <mxCell id="UBUXt03le9G-DHUDN2T2-23" value="Fill it with zero in advance" style="text;html=1;strokeColor=none;fillColor=none;align=center;verticalAlign=middle;whiteSpace=wrap;rounded=0;fontFamily=Helvetica;fontSize=20;fontColor=default;" vertex="1" parent="1">
          <mxGeometry x="60" y="480" width="280" height="30" as="geometry" />
        </mxCell>
        <mxCell id="UBUXt03le9G-DHUDN2T2-24" value="Fill it with zero in advance" style="text;html=1;strokeColor=none;fillColor=none;align=center;verticalAlign=middle;whiteSpace=wrap;rounded=0;fontFamily=Helvetica;fontSize=20;fontColor=default;" vertex="1" parent="1">
          <mxGeometry x="380" y="480" width="280" height="30" as="geometry" />
        </mxCell>
        <mxCell id="UBUXt03le9G-DHUDN2T2-27" value="" style="endArrow=classic;html=1;rounded=0;labelBackgroundColor=default;strokeColor=default;fontFamily=Helvetica;fontSize=20;fontColor=default;shape=connector;exitX=0.5;exitY=1;exitDx=0;exitDy=0;entryX=0.5;entryY=0;entryDx=0;entryDy=0;" edge="1" parent="1" source="UBUXt03le9G-DHUDN2T2-3" target="UBUXt03le9G-DHUDN2T2-12">
          <mxGeometry width="50" height="50" relative="1" as="geometry">
            <mxPoint x="260" y="270" as="sourcePoint" />
            <mxPoint x="310" y="220" as="targetPoint" />
          </mxGeometry>
        </mxCell>
        <mxCell id="UBUXt03le9G-DHUDN2T2-28" value="" style="endArrow=classic;html=1;rounded=0;labelBackgroundColor=default;strokeColor=default;fontFamily=Helvetica;fontSize=20;fontColor=default;shape=connector;exitX=0.5;exitY=1;exitDx=0;exitDy=0;entryX=0.5;entryY=0;entryDx=0;entryDy=0;" edge="1" parent="1" source="UBUXt03le9G-DHUDN2T2-5" target="UBUXt03le9G-DHUDN2T2-12">
          <mxGeometry width="50" height="50" relative="1" as="geometry">
            <mxPoint x="260" y="270" as="sourcePoint" />
            <mxPoint x="310" y="220" as="targetPoint" />
          </mxGeometry>
        </mxCell>
        <mxCell id="UBUXt03le9G-DHUDN2T2-29" value="" style="endArrow=classic;html=1;rounded=0;labelBackgroundColor=default;strokeColor=default;fontFamily=Helvetica;fontSize=20;fontColor=default;shape=connector;exitX=0.5;exitY=1;exitDx=0;exitDy=0;entryX=0.5;entryY=0;entryDx=0;entryDy=0;" edge="1" parent="1" source="UBUXt03le9G-DHUDN2T2-6" target="UBUXt03le9G-DHUDN2T2-11">
          <mxGeometry width="50" height="50" relative="1" as="geometry">
            <mxPoint x="260" y="270" as="sourcePoint" />
            <mxPoint x="310" y="220" as="targetPoint" />
          </mxGeometry>
        </mxCell>
        <mxCell id="UBUXt03le9G-DHUDN2T2-30" value="" style="endArrow=classic;html=1;rounded=0;labelBackgroundColor=default;strokeColor=default;fontFamily=Helvetica;fontSize=20;fontColor=default;shape=connector;exitX=0.5;exitY=1;exitDx=0;exitDy=0;entryX=0.5;entryY=0;entryDx=0;entryDy=0;" edge="1" parent="1" source="UBUXt03le9G-DHUDN2T2-7" target="UBUXt03le9G-DHUDN2T2-11">
          <mxGeometry width="50" height="50" relative="1" as="geometry">
            <mxPoint x="260" y="270" as="sourcePoint" />
            <mxPoint x="310" y="220" as="targetPoint" />
          </mxGeometry>
        </mxCell>
      </root>
    </mxGraphModel>
  </diagram>
</mxfile>
